<svg viewBox="0 0 120 120" xmlns="http://www.w3.org/2000/svg" role="img" aria-label="Cosmic Prudence">
  <defs>
    <radialGradient id="cb" cx="38%" cy="30%" r="65%">
      <stop offset="0%" stop-color="#6040C0"/>
      <stop offset="65%" stop-color="#1A0A50"/>
      <stop offset="100%" stop-color="#080320"/>
    </radialGradient>
    <filter id="sh"><feDropShadow dx="0" dy="3" stdDeviation="5" flood-color="#0A0428" flood-opacity="0.45"/></filter>
  </defs>
  <!-- Purple leaf -->
  <ellipse cx="74" cy="17" rx="9" ry="13" fill="#6040A0" transform="rotate(-32 74 17)"/>
  <ellipse cx="72" cy="14" rx="3.5" ry="6.5" fill="#B0A0D8" opacity="0.6" transform="rotate(-32 72 14)"/>
  <path d="M 67 27 Q 64 34 62 40" stroke="#5030A0" stroke-width="2" stroke-linecap="round" fill="none"/>
  <!-- Body -->
  <circle cx="60" cy="67" r="44" fill="url(#cb)" filter="url(#sh)"/>
  <!-- Stars -->
  <circle cx="36" cy="50" r="1.8" fill="white" opacity="0.8"/>
  <circle cx="82" cy="46" r="2.2" fill="white" opacity="0.85"/>
  <circle cx="88" cy="64" r="1.5" fill="white" opacity="0.7"/>
  <circle cx="85" cy="82" r="1.8" fill="white" opacity="0.75"/>
  <circle cx="36" cy="84" r="1.5" fill="white" opacity="0.65"/>
  <circle cx="32" cy="65" r="2" fill="white" opacity="0.75"/>
  <circle cx="50" cy="44" r="1.2" fill="white" opacity="0.6"/>
  <circle cx="70" cy="42" r="1.5" fill="white" opacity="0.7"/>
  <circle cx="40" cy="95" r="1.2" fill="white" opacity="0.55"/>
  <circle cx="78" cy="94" r="1.5" fill="white" opacity="0.6"/>
  <path d="M 44 56 L 45 53 L 46 56 L 49 57 L 46 58 L 45 61 L 44 58 L 41 57 Z" fill="white" opacity="0.6"/>
  <path d="M 76 88 L 77 85.5 L 78 88 L 80.5 89 L 78 90 L 77 92.5 L 76 90 L 73.5 89 Z" fill="white" opacity="0.55"/>
  <!-- Eyes — glowing white dots for space feel -->
  <circle cx="47" cy="62" r="5" fill="#E8E0FF"/>
  <circle cx="73" cy="62" r="5" fill="#E8E0FF"/>
  <!-- Cheeks -->
  <ellipse cx="36" cy="72" rx="10" ry="7" fill="#8060C8" opacity="0.3"/>
  <ellipse cx="84" cy="72" rx="10" ry="7" fill="#8060C8" opacity="0.3"/>
  <!-- Smile -->
  <path d="M 45 76 Q 60 92 75 76" stroke="#E8E0FF" stroke-width="2.5" stroke-linecap="round" fill="none"/>
</svg>
