<svg viewBox="0 0 120 120" xmlns="http://www.w3.org/2000/svg" role="img" aria-label="Golden Prudence">
  <defs>
    <radialGradient id="gb" cx="38%" cy="28%" r="65%">
      <stop offset="0%" stop-color="#FFF3A0"/>
      <stop offset="60%" stop-color="#F5C518"/>
      <stop offset="100%" stop-color="#C89208"/>
    </radialGradient>
    <filter id="sh"><feDropShadow dx="0" dy="3" stdDeviation="4" flood-color="#907000" flood-opacity="0.28"/></filter>
  </defs>
  <!-- Gold leaf -->
  <ellipse cx="74" cy="17" rx="9" ry="13" fill="#D4B030" transform="rotate(-32 74 17)"/>
  <ellipse cx="72" cy="14" rx="4" ry="7" fill="#F0D050" opacity="0.7" transform="rotate(-32 72 14)"/>
  <path d="M 67 27 Q 64 34 62 40" stroke="#B89020" stroke-width="2" stroke-linecap="round" fill="none"/>
  <!-- Body -->
  <circle cx="60" cy="67" r="44" fill="url(#gb)" filter="url(#sh)"/>
  <!-- Sparkles -->
  <path d="M 32 50 L 33.5 46 L 35 50 L 39 51.5 L 35 53 L 33.5 57 L 32 53 L 28 51.5 Z" fill="white" opacity="0.75"/>
  <path d="M 82 40 L 83 37 L 84 40 L 87 41 L 84 42 L 83 45 L 82 42 L 79 41 Z" fill="white" opacity="0.7"/>
  <path d="M 88 72 L 89 69.5 L 90 72 L 92.5 73 L 90 74 L 89 76.5 L 88 74 L 85.5 73 Z" fill="white" opacity="0.65"/>
  <!-- Eyes — simple dots -->
  <circle cx="47" cy="62" r="5" fill="#3A2800"/>
  <circle cx="73" cy="62" r="5" fill="#3A2800"/>
  <!-- Cheeks -->
  <ellipse cx="36" cy="72" rx="10" ry="7" fill="#E8A820" opacity="0.38"/>
  <ellipse cx="84" cy="72" rx="10" ry="7" fill="#E8A820" opacity="0.38"/>
  <!-- Smile -->
  <path d="M 45 76 Q 60 92 75 76" stroke="#3A2800" stroke-width="2.5" stroke-linecap="round" fill="none"/>
</svg>
